<?xml version="1.0" encoding="iso-8859-1"?>
<!-- Uploaded to: SVG Repo, www.svgrepo.com, Generator: SVG Repo Mixer Tools -->
<svg fill="#000000" height="800px" width="800px" version="1.1" id="Layer_1" xmlns="http://www.w3.org/2000/svg" xmlns:xlink="http://www.w3.org/1999/xlink" 
	 viewBox="0 0 512.001 512.001" xml:space="preserve">
<g>
	<g>
		<path d="M289.173,393.417l-9.616-7.315c-3.446-2.62-8.362-1.952-10.983,1.493c-2.62,3.445-1.952,8.361,1.493,10.982l7.01,5.332
			l-34.11,25.948l-17.912-12.884c0.538-1.594,0.99-3.229,1.329-4.904h10.112c4.329,0,7.837-3.509,7.837-7.837
			s-3.508-7.837-7.837-7.837h-9.993c-0.354-1.901-0.84-3.753-1.447-5.554l17.912-12.883l6.195,4.714
			c3.443,2.622,8.361,1.953,10.982-1.491s1.953-8.361-1.492-10.982l-7.655-5.825c-2.284-1.737-5.119-2.693-7.988-2.693
			c-2.777,0-5.44,0.857-7.704,2.483l-18.074,12.999c-1.072-1.241-2.21-2.424-3.421-3.529l11.934-15.656
			c3.542-4.648,3.628-10.955,0.211-15.698l-29.072-40.337c-0.722-1.002-1.588-1.87-2.539-2.621v-87.715
			c2.082-0.453,4.127-1.078,6.117-1.894c4.004-1.644,5.917-6.221,4.275-10.225c-1.644-4.004-6.223-5.918-10.225-4.275
			c-2.536,1.041-5.228,1.568-8.002,1.568c-11.616,0-21.067-9.438-21.067-21.039c0-11.602,9.451-21.039,21.067-21.039
			s21.067,9.438,21.067,21.039c0,1.761-0.216,3.506-0.643,5.186c-1.064,4.195,1.472,8.459,5.669,9.524
			c4.193,1.067,8.458-1.472,9.523-5.667c0.746-2.94,1.124-5.982,1.124-9.043c0-20.244-16.481-36.713-36.741-36.713
			s-36.741,16.469-36.741,36.713c0,17.555,12.399,32.264,28.904,35.863v87.224c-1.218,0.843-2.305,1.886-3.191,3.115l-29.066,40.334
			c-3.422,4.744-3.337,11.055,0.208,15.701l11.933,15.655c-0.932,0.851-1.824,1.742-2.675,2.673l-15.679-11.926
			c-2.283-1.74-5.121-2.698-7.993-2.698c-2.781,0-5.445,0.859-7.702,2.483L84.123,393.21c-3.432,2.471-5.482,6.471-5.482,10.7
			s2.05,8.23,5.486,10.702l40.379,29.041c2.257,1.625,4.921,2.483,7.703,2.483c2.873,0,5.712-0.957,7.988-2.693l15.686-11.933
			c1.107,1.211,2.289,2.348,3.532,3.42l-13,18.039c-3.422,4.744-3.337,11.055,0.208,15.701l29.069,38.138
			c2.479,3.252,6.401,5.194,10.492,5.194c4.09,0,8.011-1.941,10.49-5.193l29.071-38.138c3.542-4.648,3.628-10.955,0.211-15.698
			l-13.004-18.043c1.53-1.32,2.959-2.748,4.28-4.277l18.08,13.004c2.259,1.621,4.92,2.479,7.699,2.479
			c2.868,0,5.705-0.956,7.988-2.693l38.172-29.04c3.259-2.477,5.206-6.4,5.206-10.494
			C294.376,399.816,292.43,395.893,289.173,393.417z M135.867,412.07h10.111c0.417,2.055,0.987,4.054,1.701,5.986l-15.513,11.8
			L96.09,403.908l36.077-25.947l15.513,11.8c-0.788,2.134-1.393,4.353-1.818,6.635h-9.993c-4.329,0-7.837,3.509-7.837,7.837
			C128.031,408.561,131.539,412.07,135.867,412.07z M186.181,313.901l25.977,36.045l-11.808,15.494
			c-2.039-0.752-4.156-1.341-6.332-1.763v-9.708c0-4.328-3.508-7.837-7.837-7.837s-7.837,3.509-7.837,7.837v9.708
			c-2.175,0.422-4.29,1.01-6.33,1.762l-11.808-15.493L186.181,313.901z M211.533,403.907c0,13.96-11.373,25.317-25.351,25.317
			c-13.978,0-25.349-11.357-25.349-25.317c0-13.96,11.372-25.317,25.349-25.317C200.161,378.591,211.533,389.948,211.533,403.907z
			 M186.183,494.714l-25.975-34.078l12.892-17.889c1.702,0.574,3.452,1.043,5.245,1.391v10.36c0,4.328,3.508,7.837,7.837,7.837
			c4.329,0,7.837-3.509,7.837-7.837v-10.36c1.795-0.348,3.545-0.817,5.249-1.392l12.893,17.889L186.183,494.714z"/>
	</g>
</g>
<g>
	<g>
		<path d="M115.165,257.603c-12.151-3.313-12.753-3.907-16.094-15.868c-1.457-5.214-6.27-8.856-11.707-8.856
			c-5.437,0-10.252,3.641-11.707,8.854c-3.343,11.962-3.943,12.555-16.092,15.87c-5.266,1.436-8.945,6.234-8.945,11.669
			c0,5.431,3.677,10.23,8.944,11.669c12.15,3.313,12.751,3.907,16.094,15.868c1.458,5.215,6.271,8.858,11.707,8.858
			c5.436-0.002,10.25-3.645,11.707-8.86c3.341-11.96,3.941-12.553,16.097-15.868c5.26-1.438,8.935-6.235,8.935-11.668
			C124.104,263.836,120.428,259.038,115.165,257.603z M87.364,282.716c-2.968-6.683-6.772-10.493-13.453-13.444
			c6.682-2.953,10.484-6.76,13.453-13.445c2.969,6.683,6.772,10.492,13.454,13.445C94.136,272.224,90.332,276.033,87.364,282.716z"
			/>
	</g>
</g>
<g>
	<g>
		<path d="M456.179,254.387l-38.177-29.042c-2.283-1.737-5.119-2.693-7.987-2.693c-2.779,0-5.442,0.858-7.704,2.483l-18.074,12.999
			c-1.071-1.241-2.21-2.424-3.422-3.53l11.935-15.656c3.542-4.648,3.628-10.955,0.211-15.698l-29.067-40.332
			c-0.723-1.005-1.59-1.876-2.544-2.628v-26.544c0-4.328-3.508-7.837-7.837-7.837c-4.329,0-7.837,3.509-7.837,7.837v26.052
			c-1.218,0.843-2.305,1.886-3.191,3.114l-29.069,40.338c-3.417,4.742-3.331,11.049,0.211,15.695l11.933,15.656
			c-0.932,0.849-1.823,1.742-2.674,2.672l-15.684-11.931c-2.284-1.737-5.12-2.693-7.988-2.693c-2.785,0-5.449,0.859-7.704,2.483
			l-40.383,29.044c-3.432,2.471-5.482,6.471-5.482,10.7c0,4.229,2.05,8.23,5.486,10.702l40.379,29.041
			c2.257,1.625,4.922,2.483,7.705,2.483c2.868,0,5.705-0.956,7.988-2.693l15.685-11.932c1.106,1.21,2.288,2.348,3.532,3.419
			l-13.003,18.043c-3.417,4.742-3.331,11.049,0.211,15.696l29.069,38.138c2.479,3.252,6.401,5.194,10.492,5.194
			c4.095,0,8.018-1.944,10.49-5.193l29.071-38.138c3.542-4.648,3.628-10.955,0.211-15.698l-13.004-18.043
			c1.53-1.32,2.959-2.748,4.28-4.277l18.08,13.004c2.259,1.621,4.92,2.478,7.699,2.478c2.868,0,5.705-0.956,7.987-2.693
			l38.178-29.043c3.255-2.477,5.199-6.399,5.199-10.49C461.38,260.789,459.436,256.867,456.179,254.387z M302.871,273.039h10.112
			c0.417,2.055,0.988,4.054,1.701,5.986l-15.511,11.8l-36.078-25.948l36.078-25.948l15.511,11.8
			c-0.788,2.134-1.393,4.353-1.818,6.636h-9.994c-4.329,0-7.837,3.509-7.837,7.837C295.034,269.53,298.543,273.039,302.871,273.039z
			 M353.185,174.871l25.977,36.045l-11.807,15.493c-2.04-0.752-4.158-1.341-6.333-1.763v-9.708c0-4.328-3.508-7.837-7.837-7.837
			c-4.329,0-7.837,3.509-7.837,7.837v9.708c-2.174,0.422-4.291,1.01-6.329,1.762l-11.809-15.492L353.185,174.871z M378.537,264.877
			c0,13.96-11.373,25.316-25.351,25.316c-13.978,0-25.349-11.357-25.349-25.316c0-13.96,11.372-25.317,25.349-25.317
			C367.165,239.561,378.537,250.918,378.537,264.877z M353.187,355.684l-25.975-34.078l12.892-17.889
			c1.702,0.574,3.452,1.043,5.246,1.391v10.36c0,4.328,3.508,7.837,7.837,7.837c4.329,0,7.837-3.509,7.837-7.837v-10.36
			c1.794-0.348,3.545-0.817,5.249-1.392l12.893,17.89L353.187,355.684z M409.972,290.826l-17.911-12.884
			c0.538-1.595,0.99-3.229,1.329-4.904h10.111c4.329,0,7.837-3.509,7.837-7.837c0-4.328-3.508-7.837-7.837-7.837h-9.993
			c-0.354-1.901-0.84-3.754-1.447-5.553l17.912-12.883l34.112,25.948L409.972,290.826z"/>
	</g>
</g>
<g>
	<g>
		<path d="M353.512,0c-20.26,0-36.741,16.469-36.741,36.713c0,17.555,12.399,32.264,28.904,35.863v34.004
			c0,4.328,3.508,7.837,7.837,7.837s7.837-3.509,7.837-7.837V72.575c16.506-3.599,28.906-18.308,28.906-35.863
			C390.255,16.469,373.772,0,353.512,0z M353.512,57.752c-11.616,0-21.067-9.438-21.067-21.039s9.451-21.039,21.067-21.039
			c11.617,0,21.069,9.438,21.069,21.039S365.129,57.752,353.512,57.752z"/>
	</g>
</g>
<g>
	<g>
		<path d="M445.498,395.496c-12.151-3.313-12.753-3.907-16.094-15.869c-1.457-5.214-6.27-8.855-11.707-8.855
			c-5.442,0-10.257,3.645-11.707,8.854c-3.343,11.962-3.943,12.555-16.09,15.869c-5.269,1.435-8.95,6.234-8.95,11.669
			c0,5.433,3.679,10.232,8.946,11.668c12.15,3.313,12.752,3.907,16.091,15.859c1.453,5.219,6.267,8.865,11.709,8.865
			c5.436,0,10.25-3.643,11.707-8.858c3.341-11.961,3.942-12.553,16.099-15.868c5.258-1.438,8.931-6.236,8.931-11.667
			C454.434,401.731,450.761,396.933,445.498,395.496z M417.697,420.609c-2.969-6.683-6.773-10.492-13.454-13.444
			c6.681-2.953,10.484-6.76,13.454-13.445c2.969,6.684,6.773,10.493,13.453,13.445C424.469,410.117,420.665,413.927,417.697,420.609
			z"/>
	</g>
</g>
</svg>